<?xml version="1.0" standalone="no"?>
<!DOCTYPE svg PUBLIC "-//W3C//DTD SVG 20010904//EN"
 "http://www.w3.org/TR/2001/REC-SVG-20010904/DTD/svg10.dtd">
<svg version="1.0" xmlns="http://www.w3.org/2000/svg"
 width="225.000000pt" height="225.000000pt" viewBox="0 0 225.000000 225.000000"
 preserveAspectRatio="xMidYMid meet">
<metadata>
Created by potrace 1.14, written by Peter Selinger 2001-2017
</metadata>
<g transform="translate(0.000000,225.000000) scale(0.100000,-0.100000)"
fill="#000000" stroke="none">
<path d="M1020 2245 c-8 -2 -49 -9 -90 -15 -366 -60 -702 -330 -844 -680 -24
-58 -54 -161 -71 -245 -4 -16 -8 -87 -9 -157 -10 -423 203 -791 585 -1011 85
-49 217 -94 354 -122 17 -4 85 -8 152 -9 224 -6 421 46 607 159 103 62 106 64
216 175 168 167 266 352 311 585 14 75 18 278 6 360 -22 162 -82 313 -182 465
-161 244 -425 420 -715 477 -67 13 -281 25 -320 18z"/>
</g>
</svg>
